<?xml version="1.0"?>
<svg xmlns="http://www.w3.org/2000/svg" height="512px" viewBox="0 0 60 44" width="512px"><g><g id="Page-1" fill="none" fill-rule="evenodd"><g id="004---Small-Yacht" fill="rgb(0,0,0)" fill-rule="nonzero"><path id="Shape" d="m58.733 40.036-4.833 1.337c-2.9865254.8390149-6.1464746.8390149-9.133 0-3.3355412-.9362906-6.8644588-.9362906-10.2 0-2.9863252.8380028-6.1456748.8380028-9.132 0-3.3375522-.936486-6.8684478-.936486-10.206 0-2.9819821.8374769-6.13701791.8374769-9.119 0l-4.77-1.336c-.53185021-.1491169-1.08388312.1611498-1.233.693s.16114979 1.0838831.693 1.233l4.777 1.337c3.33544883.936961 6.8645512.936961 10.2 0 2.9860113-.8378157 6.1449887-.8378157 9.131 0 3.3355128.9364968 6.8644872.9364968 10.2 0 2.9855767-.8385047 6.1444233-.8385047 9.13 0 3.3354346.9370643 6.8645654.9370643 10.2 0l4.83-1.337c.344404-.0953899.6117566-.3672712.7013485-.7132288s-.0121879-.7134323-.267-.964-.6239445-.3461611-.9683485-.2507712z" data-original="#000000" class="active-path" data-old_color="#000000" fill="#FFFFFF"/><path id="Shape" d="m.832 34.021c-.45534566.0839932-.79347926.4695951-.8172783.9320106-.02379905.4624156.27296142.8806935.7172783 1.0109894l4.845 1.336c3.33544883.936961 6.8645512.936961 10.2 0 2.9860113-.8378157 6.1449887-.8378157 9.131 0 3.3355128.9364968 6.8644872.9364968 10.2 0 2.9855767-.8385047 6.1444233-.8385047 9.13 0 3.3354346.9370643 6.8645654.9370643 10.2 0l4.83-1.337c.344404-.0953899.6117566-.3672712.7013485-.7132288s-.0121879-.7134323-.267-.964-.6239445-.3461611-.9683485-.2507712l-4.834 1.338c-2.3967879.6707583-4.9124586.8019037-7.366.384l13.195-14.073c.1710281-.1863829.2643925-.4310619.261-.684h.01v-2c0-1.6568542-1.3431458-3-3-3h-8c-1.6568542 0-3 1.3431458-3 3v1h-1.479l-6.055-8.65c.3419064-.3665375.5326497-.8487537.534-1.35v-2c0-1.1045695-.8954305-2-2-2h-8.532l-4.088-4.907c-.8206929-.98230734-2.1682376-1.34624488-3.3718683-.91065586s-2.0061671 1.57763213-2.0081317 2.85765586v2.96h-2c-2.209139 0-4 1.790861-4 4 0 1.1045695.8954305 2 2 2h2.168l-7.714 12h-4.5c-1.13890899-.0030822-2.1803886.6419758-2.685 1.663l-1.85 3.7c-.50211168 1.0105295-.55404585 2.1861302-.143 3.237zm33.738 1.354c-2.9863252.8380028-6.1456748.8380028-9.132 0-3.3375522-.936486-6.8684478-.936486-10.206 0-2.9831365.836493-6.13886352.836493-9.122 0l-2.91-.806-1.013-2.569h45.131l-3.048 3.252c-3.1886176-.806587-6.5328601-.7641806-9.7.123zm23.43-16.375v1h-4v-2h3c.5522847 0 1 .4477153 1 1zm-10 0c0-.5522847.4477153-1 1-1h3v2h-4zm-27-15.96c.0019974-.4380936.277301-.82834005.689348-.97715962.412047-.14881958.8731782-.02455233 1.154652.31115962l3.021 3.626h-4.865zm-4 4.96h20v2h-22c0-1.1045695.8954305-2 2-2zm2.546 4h16.933l2.1 3h-8.579c-.5522847 0-1 .4477153-1 1s.4477153 1 1 1h9.979l2.1 3h-2.579c-1.7778944-.0001975-3.5394619.3392182-5.19 1l-5.359 2.14c-1.4152665.5678249-2.9260724.8597353-4.451.86h-12.668zm-15.485 14.557c.16910108-.3422243.51827909-.5583266.9-.557h19.539c1.7778944.0001975 3.5394619-.3392182 5.19-1l5.359-2.14c1.4152665-.5678249 2.9260724-.8597353 4.451-.86h17.19l-7.5 8h-46.85z" data-original="#000000" class="active-path" data-old_color="#000000" fill="#FFFFFF"/><path id="Shape" d="m47 27c.5522847 0 1-.4477153 1-1v-1c0-.5522847-.4477153-1-1-1s-1 .4477153-1 1v1c0 .5522847.4477153 1 1 1z" data-original="#000000" class="active-path" data-old_color="#000000" fill="#FFFFFF"/><path id="Shape" d="m43 27c.5522847 0 1-.4477153 1-1v-1c0-.5522847-.4477153-1-1-1s-1 .4477153-1 1v1c0 .5522847.4477153 1 1 1z" data-original="#000000" class="active-path" data-old_color="#000000" fill="#FFFFFF"/><circle id="Oval" cx="21" cy="16" r="1" data-original="#000000" class="active-path" data-old_color="#000000" fill="#FFFFFF"/><circle id="Oval" cx="18" cy="21" r="1" data-original="#000000" class="active-path" data-old_color="#000000" fill="#FFFFFF"/></g></g></g> </svg>
