<svg height="512" viewBox="0 0 60 44" width="512" xmlns="http://www.w3.org/2000/svg"><g id="Page-1" fill="none" fill-rule="evenodd"><g id="004---Small-Yacht" fill-rule="nonzero"><g id="Icons" transform="translate(1 1)"><path id="Shape" d="m48.62 30-5.02 5.36c-.0308698-.0018587-.0612484-.0086094-.09-.02h-.01c-3.1585046-.8899783-6.5014954-.8899783-9.66 0-3.1598521.880173-6.5001479.880173-9.66 0h-.01c-3.1585046-.8899783-6.5014954-.8899783-9.66 0h-.01c-3.1598521.880173-6.50014787.880173-9.66 0l-3.39-.94-1.24-3.16c-.15518064-.394109-.22340292-.8170872-.2-1.24z" fill="#e8edfc"/><path id="Shape" d="m45.62 30-4.531 4.838c.8139899.1122951 1.619483.2793405 2.411.5h.01c.0287516.0113906.0591302.0181413.09.02l5.02-5.358z" fill="#cad9fc"/><path id="Shape" d="m58 20-9.38 10h-48.61c.01768964-.4141748.12336605-.8198359.31-1.19l1.85-3.7c.33773001-.6796577 1.03105603-1.1095973 1.79-1.11h19.54c1.6510612-.0019903 3.286718-.3175839 4.82-.93l5.36-2.14c1.533282-.6124161 3.1689388-.9280097 4.82-.93z" fill="#e8edfc"/><path id="Shape" d="m55 20-9.38 10h3l9.38-10z" fill="#cad9fc"/><path id="Shape" d="m14 6h22c.5522847 0 1 .44771525 1 1 0 1.65685425-1.3431458 3-3 3h-20c-.5522847 0-1-.44771525-1-1v-2c0-.55228475.4477153-1 1-1z" fill="#e8edfc" transform="matrix(-1 0 0 -1 50 16)"/><path id="Shape" d="m36 6h-3c.5522847 0 1 .44771525 1 1v2c0 .55228475-.4477153 1-1 1h3c.5522847 0 1-.44771525 1-1v-2c0-.55228475-.4477153-1-1-1z" fill="#cad9fc"/><path id="Shape" d="m43 20h-4.5c-1.6510612.0019903-3.286718.3175839-4.82.93l-5.36 2.14c-1.533282.6124161-3.1689388.9280097-4.82.93h-14.5l9-14h18z" fill="#a4c2f7"/><path id="Shape" d="m36 10h-3l7 10h3z" fill="#7facfa"/><path id="Shape" d="m27 6-4.388-5.266c-.3876405-.46493726-.9616639-.73381614-1.567-.734h-.005c-1.1266609 0-2.04.91333911-2.04 2.04v3.96z" fill="#e8edfc"/><path id="Shape" d="m22.612.734c-.3879514-.46509323-.962345-.7339739-1.568-.734-.5715329.00060213-1.1162525.24245763-1.5.666.022.024.05.043.071.068l4.385 5.266h3z" fill="#cad9fc"/></g><g id="Icons_copy_2" fill="#fff" transform="translate(1 1)"><path id="Shape" d="m1.45 34.4 3.39.94c2.06850377.5745765 4.22282628.7760575 6.362.595-1.1368013-.0928099-2.26239508-.2920152-3.362-.595l-3.39-.94-1.24-3.16c-.30646141-.7894645-.26653601-1.671453.11-2.43l1.85-3.7c.33773001-.6796577 1.03105603-1.1095973 1.79-1.11h-3c-.75894397.0004027-1.45226999.4303423-1.79 1.11l-1.85 3.7c-.37653601.758547-.41646141 1.6405355-.11 2.43z"/><path id="Shape" d="m21 10h-3l-9 14h3z"/><path id="Shape" d="m14 10h3c-1.917 0-.976-4 2-4h-3c-2.976 0-3.917 4-2 4z"/><path id="Shape" d="m22 2.04c.0010594-.50975015.1942357-1.00036803.541-1.374-.3848088-.42154131-.9292331-.66170785-1.5-.66170785s-1.1151912.24016654-1.5.66170785c-.3467643.37363197-.5399406.86424985-.541 1.374v3.96h3z"/></g><g id="Icons_copy"><path id="Rectangle-path" d="m8.163 20.635h8v2h-8z" fill="#fff" transform="matrix(.541 -.841 .841 .541 -12.613 20.167)"/><g fill="#428dff"><path id="Shape" d="m12.183 22.635c-.5522847.0027614-1.0022386-.4427153-1.005-.995s.4427153-1.0022386.995-1.005h.01c.5522847 0 1 .4477153 1 1s-.4477153 1-1 1z"/><path id="Shape" d="m58.733 40.036-4.833 1.337c-2.9865254.8390149-6.1464746.8390149-9.133 0-3.3355412-.9362906-6.8644588-.9362906-10.2 0-2.9863252.8380028-6.1456748.8380028-9.132 0-3.3375522-.936486-6.8684478-.936486-10.206 0-2.9819821.8374769-6.13701791.8374769-9.119 0l-4.77-1.336c-.53185021-.1491169-1.08388312.1611498-1.233.693s.16114979 1.0838831.693 1.233l4.777 1.337c3.33544883.936961 6.8645512.936961 10.2 0 2.9860113-.8378157 6.1449887-.8378157 9.131 0 3.3355128.9364968 6.8644872.9364968 10.2 0 2.9855767-.8385047 6.1444233-.8385047 9.13 0 3.3354346.9370643 6.8645654.9370643 10.2 0l4.83-1.337c.344404-.0953899.6117566-.3672712.7013485-.7132288s-.0121879-.7134323-.267-.964-.6239445-.3461611-.9683485-.2507712z"/><path id="Shape" d="m.832 34.021c-.45534566.0839932-.79347926.4695951-.8172783.9320106-.02379905.4624156.27296142.8806935.7172783 1.0109894l4.845 1.336c3.33544883.936961 6.8645512.936961 10.2 0 2.9860113-.8378157 6.1449887-.8378157 9.131 0 3.3355128.9364968 6.8644872.9364968 10.2 0 2.9855767-.8385047 6.1444233-.8385047 9.13 0 3.3354346.9370643 6.8645654.9370643 10.2 0l4.83-1.337c.344404-.0953899.6117566-.3672712.7013485-.7132288s-.0121879-.7134323-.267-.964-.6239445-.3461611-.9683485-.2507712l-4.834 1.338c-2.3967879.6707583-4.9124586.8019037-7.366.384l13.195-14.073c.1710281-.1863829.2643925-.4310619.261-.684h.01v-2c0-1.6568542-1.3431458-3-3-3h-8c-1.6568542 0-3 1.3431458-3 3v1h-1.479l-6.055-8.65c.3419064-.3665375.5326497-.8487537.534-1.35v-2c0-1.1045695-.8954305-2-2-2h-8.532l-4.088-4.907c-.8206929-.98230734-2.1682376-1.34624488-3.3718683-.91065586s-2.0061671 1.57763213-2.0081317 2.85765586v2.96h-2c-2.209139 0-4 1.790861-4 4 0 1.1045695.8954305 2 2 2h2.168l-3.683 5.73c-.2035491.3005634-.2282351.687829-.0644968 1.0118049s.4901842.5337785.8529018.5481492c.3627177.0143706.7047387-.1689478.893595-.4789541l4.379-6.811h16.933l2.1 3h-8.579c-.5522847 0-1 .4477153-1 1s.4477153 1 1 1h9.979l2.1 3h-2.579c-1.7778944-.0001975-3.5394619.3392182-5.19 1l-5.359 2.14c-1.4152665.5678249-2.9260724.8597353-4.451.86h-19.543c-1.13890899-.0030822-2.1803886.6419758-2.685 1.663l-1.85 3.7c-.50308734 1.0101011-.55611143 2.1857105-.146 3.237zm20.168-30.981c.0019974-.4380936.277301-.82834005.689348-.97715962.412047-.14881958.8731782-.02455233 1.154652.31115962l3.021 3.626h-4.865zm-6 6.96c0-1.1045695.8954305-2 2-2h20v2zm39 8h3c.5522847 0 1 .4477153 1 1v1h-4zm-6 1c0-.5522847.4477153-1 1-1h3v2h-4zm-43.939 7.557c.16910108-.3422243.51827909-.5583266.9-.557h19.539c1.7778944.0001975 3.5394619-.3392182 5.19-1l5.359-2.14c1.4152665-.5678249 2.9260724-.8597353 4.451-.86h17.19l-7.5 8h-46.85zm43.257 5.443-3.048 3.252c-3.1886176-.806587-6.5328601-.7641806-9.7.123-2.9863252.8380028-6.1456748.8380028-9.132 0-3.3375522-.936486-6.8684478-.936486-10.206 0-2.9831365.836493-6.13886352.836493-9.122 0l-2.91-.806-1.013-2.569z"/><path id="Shape" d="m47 24c-.5522847 0-1 .4477153-1 1v1c0 .5522847.4477153 1 1 1s1-.4477153 1-1v-1c0-.5522847-.4477153-1-1-1z"/><path id="Shape" d="m43 24c-.5522847 0-1 .4477153-1 1v1c0 .5522847.4477153 1 1 1s1-.4477153 1-1v-1c0-.5522847-.4477153-1-1-1z"/><circle id="Oval" cx="21" cy="16" r="1"/><circle id="Oval" cx="18" cy="21" r="1"/></g></g></g></g></svg>